<?xml version="1.0" standalone="no"?>
<!DOCTYPE svg PUBLIC "-//W3C//DTD SVG 20010904//EN"
 "http://www.w3.org/TR/2001/REC-SVG-20010904/DTD/svg10.dtd">
<svg version="1.0" xmlns="http://www.w3.org/2000/svg"
 width="801.000000pt" height="507.000000pt" viewBox="0 0 801.000000 507.000000"
 preserveAspectRatio="xMidYMid meet">

<g transform="translate(0.000000,507.000000) scale(0.100000,-0.100000)"
fill="#000000" stroke="none">
<path d="M1971 4155 c-30 -9 -81 -27 -113 -42 l-59 -26 61 -33 c115 -61 157
-106 130 -139 -21 -26 -59 -17 -108 24 -107 90 -211 107 -327 53 -177 -83
-292 -305 -255 -489 24 -117 71 -166 172 -178 69 -9 96 -31 78 -65 -11 -21
-18 -22 -75 -18 -155 13 -265 139 -265 305 0 29 -3 53 -7 53 -15 0 -114 -82
-146 -122 -128 -158 -155 -384 -61 -519 l27 -39 197 0 197 0 116 108 c64 59
195 182 292 275 106 101 183 167 195 167 11 0 57 -34 102 -75 46 -42 88 -74
95 -73 7 2 107 95 223 207 206 198 210 204 204 236 -16 90 64 214 174 269 28
15 52 29 52 32 0 10 -146 74 -205 89 -116 30 -260 12 -285 -36 -6 -10 -10
-103 -10 -208 0 -180 -1 -191 -20 -201 -17 -9 -48 -3 -62 13 -1 1 -4 92 -7
201 l-6 199 -28 21 c-24 17 -45 21 -125 23 -62 2 -116 -3 -151 -12z m173 -397
c8 -13 8 -23 0 -35 -9 -15 -32 -19 -145 -23 -91 -4 -145 -11 -169 -21 -55 -25
-114 -98 -133 -166 -21 -78 -43 -97 -108 -94 -55 2 -89 15 -89 34 0 26 19 39
64 44 37 5 46 9 46 24 0 37 45 115 95 165 78 78 128 94 294 91 115 -2 135 -4
145 -19z"/>
<path d="M3480 4083 c-14 -9 -112 -102 -218 -207 -106 -105 -196 -192 -201
-194 -4 -1 -47 33 -94 78 -96 89 -122 97 -156 54 -24 -30 -27 -63 -8 -86 17
-22 246 -228 253 -228 17 0 62 41 287 262 136 134 247 250 247 258 -1 19 -30
54 -57 69 -27 14 -24 14 -53 -6z"/>
<path d="M2438 3400 c-119 -116 -220 -210 -224 -210 -5 0 -48 39 -95 86 -65
65 -90 84 -102 78 -8 -5 -133 -121 -276 -259 -143 -137 -271 -253 -283 -257
-13 -3 -134 -6 -270 -7 -243 -1 -247 -1 -262 -23 -22 -31 -20 -51 7 -76 23
-21 30 -22 289 -22 161 0 278 4 294 10 15 6 97 77 182 158 85 81 193 182 239
226 l84 79 78 -77 c112 -108 106 -109 284 62 78 75 193 184 254 241 l112 104
-41 48 c-23 27 -44 49 -47 49 -3 0 -103 -95 -223 -210z"/>
<path d="M3476 3512 c-71 -149 -210 -217 -383 -189 l-53 9 0 -110 0 -109 83
-6 c112 -9 160 2 206 47 41 40 75 46 91 15 18 -32 -22 -85 -95 -127 -22 -12
-63 -18 -155 -22 l-125 -5 0 -150 0 -150 327 0 c359 0 361 0 361 60 0 42 -25
59 -98 63 l-64 4 44 44 c65 65 97 139 103 234 8 144 -40 271 -147 383 l-66 69
-29 -60z"/>
<path d="M2650 3253 c-8 -3 -23 -12 -32 -21 -17 -14 -18 -58 -18 -656 l0 -641
170 170 170 170 0 477 0 477 -22 15 c-17 12 -49 16 -138 15 -63 0 -122 -3
-130 -6z m265 -953 c10 -11 16 -20 13 -20 -3 0 -13 9 -23 20 -10 11 -16 20
-13 20 3 0 13 -9 23 -20z"/>
<path d="M4104 3000 c-12 -4 -24 -15 -27 -22 -9 -24 -6 -900 3 -924 9 -22 16
-24 70 -24 58 0 62 1 73 29 l13 29 24 -19 c74 -57 221 -64 315 -17 68 35 128
96 162 166 25 50 28 68 28 152 0 82 -4 103 -26 151 -86 182 -302 251 -464 148
-25 -16 -48 -29 -50 -29 -3 0 -5 76 -5 169 0 164 -1 170 -22 185 -24 17 -61
20 -94 6z m400 -444 c70 -29 116 -104 116 -188 0 -127 -90 -215 -212 -206
-170 12 -247 208 -136 343 17 20 44 42 62 50 41 18 128 19 170 1z"/>
<path d="M2174 2909 c-18 -20 -19 -49 -21 -717 -3 -597 -1 -699 12 -718 20
-31 51 -39 80 -20 23 15 25 22 25 100 0 95 9 109 62 104 l33 -3 3 -137 c2
-132 3 -139 26 -153 30 -20 72 -11 88 19 9 15 13 215 16 759 4 670 3 739 -12
762 -16 25 -18 25 -155 25 -127 0 -139 -2 -157 -21z"/>
<path d="M1742 2783 c-7 -3 -19 -18 -28 -34 -12 -24 -14 -72 -14 -252 l1 -222
172 -168 172 -169 3 407 c1 268 -1 413 -8 425 -10 18 -22 20 -148 19 -75 0
-143 -3 -150 -6z"/>
<path d="M5139 2705 c-25 -8 -64 -32 -87 -53 l-42 -39 0 33 c0 44 -23 64 -71
64 -83 0 -79 19 -79 -331 0 -195 4 -318 10 -330 9 -15 22 -19 64 -19 31 0 58
5 64 13 6 7 12 88 14 192 3 175 4 181 30 227 32 54 81 87 146 100 57 10 69 22
78 74 5 35 3 45 -15 63 -24 24 -48 25 -112 6z"/>
<path d="M5503 2705 c-102 -31 -176 -97 -222 -195 -22 -46 -26 -69 -26 -145 0
-76 4 -99 27 -147 59 -127 169 -200 302 -201 73 0 148 24 188 60 20 18 19 19
36 -19 11 -26 16 -28 66 -28 44 0 57 4 66 19 15 29 14 633 -2 649 -7 7 -35 12
-63 12 -58 0 -75 -12 -75 -53 l0 -29 -35 31 c-62 54 -173 74 -262 46z m210
-165 c71 -49 101 -136 83 -235 -9 -47 -76 -120 -123 -136 -92 -30 -204 13
-247 96 -28 54 -29 146 0 199 55 106 191 142 287 76z"/>
<path d="M6927 2706 c-61 -17 -148 -77 -181 -124 -52 -77 -70 -132 -70 -217 0
-107 35 -185 111 -255 71 -65 144 -93 246 -93 66 0 86 5 141 32 136 67 215
202 204 346 -15 177 -155 313 -331 321 -41 2 -93 -2 -120 -10z m180 -147 c105
-39 155 -185 100 -290 -46 -87 -156 -131 -250 -100 -70 23 -137 122 -137 202
0 67 48 147 108 179 42 22 133 27 179 9z"/>
<path d="M6037 2695 c-9 -9 -17 -21 -17 -26 0 -15 240 -612 252 -626 11 -14
115 -18 134 -5 13 8 264 616 264 638 0 7 -9 18 -19 24 -23 12 -100 13 -117 2
-7 -4 -35 -68 -64 -142 -97 -255 -123 -320 -127 -316 -3 2 -42 104 -88 226
-45 121 -86 224 -89 227 -3 4 -30 8 -59 11 -41 3 -57 0 -70 -13z"/>
<path d="M1177 2613 c-53 -60 -22 -134 94 -225 104 -82 620 -600 645 -648 17
-32 19 -70 24 -423 5 -422 3 -407 62 -407 60 0 59 -6 56 429 -3 389 -3 397
-26 446 -18 39 -89 116 -318 346 l-296 296 39 6 c61 11 67 9 111 -29 l42 -36
0 131 0 131 -208 0 c-186 0 -211 -2 -225 -17z"/>
<path d="M3047 2624 c-8 -8 -10 -254 -2 -254 3 0 16 9 28 21 42 40 60 47 110
40 l47 -6 -291 -290 c-199 -199 -299 -306 -317 -340 l-27 -50 -3 -405 c-3
-374 -2 -406 14 -417 26 -19 61 -16 84 7 19 19 20 33 20 388 0 339 2 370 20
409 13 29 109 131 322 342 167 165 330 320 363 346 65 49 84 80 85 136 0 72
-3 74 -237 77 -115 2 -212 0 -216 -4z"/>
<path d="M4330 1775 c-25 -8 -60 -28 -77 -44 -18 -16 -33 -29 -34 -28 0 1 -2
15 -3 30 -2 35 -20 47 -69 47 -81 0 -77 19 -77 -335 0 -272 2 -316 16 -329 19
-19 107 -22 122 -3 6 7 12 93 14 213 3 198 3 201 30 241 67 101 218 97 270 -7
15 -30 18 -65 18 -236 0 -142 3 -203 12 -212 7 -7 33 -12 59 -12 79 0 79 1 79
239 0 231 -8 277 -60 348 -60 81 -198 121 -300 88z"/>
<path d="M5031 1774 c-69 -18 -108 -43 -161 -100 -67 -73 -85 -122 -85 -234 0
-88 3 -101 33 -162 88 -179 296 -248 478 -158 57 28 124 87 124 110 0 13 -50
50 -77 57 -16 4 -34 -1 -51 -14 -94 -69 -187 -75 -275 -17 -40 26 -77 77 -77
107 0 16 19 17 250 17 291 0 277 -5 267 107 -14 146 -103 251 -244 288 -70 18
-112 18 -182 -1z m190 -147 c41 -22 88 -83 89 -114 0 -10 -45 -13 -190 -13
-104 0 -190 2 -190 5 0 3 9 23 20 45 47 93 173 128 271 77z"/>
<path d="M6557 1776 c-39 -14 -64 -32 -104 -76 l-22 -25 -1 35 c0 19 -4 41 -9
49 -11 17 -105 21 -121 5 -15 -15 -15 -631 1 -650 15 -18 114 -19 126 -1 4 6
10 98 13 204 l5 191 30 44 c34 49 102 88 152 88 40 0 53 21 53 84 0 66 -39 82
-123 52z"/>
<path d="M6940 1776 c-25 -7 -59 -20 -76 -29 -51 -26 -120 -102 -151 -165 -24
-50 -28 -69 -28 -147 0 -77 4 -98 27 -147 37 -79 109 -149 184 -178 85 -34
198 -32 276 3 70 31 145 104 177 172 36 75 41 200 10 280 -30 79 -122 174
-194 199 -67 23 -169 29 -225 12z m190 -156 c65 -33 110 -111 110 -190 0 -52
-44 -133 -89 -164 -73 -51 -134 -55 -211 -16 -150 76 -147 295 5 374 43 23
137 21 185 -4z"/>
<path d="M6022 1764 c-21 -15 -22 -20 -22 -216 0 -184 -2 -203 -21 -237 -29
-52 -64 -74 -126 -79 -65 -5 -106 10 -136 52 -21 29 -22 44 -27 256 l-5 225
-70 0 -70 0 0 -240 0 -240 28 -57 c45 -92 127 -141 237 -141 66 0 144 27 171
59 16 19 29 18 29 -4 0 -10 5 -23 12 -30 16 -16 100 -16 116 0 9 9 12 96 12
330 l0 318 -26 10 c-37 14 -76 12 -102 -6z"/>
<path d="M2182 1284 c-22 -15 -22 -18 -22 -259 0 -268 2 -275 60 -275 56 0 60
20 60 265 0 121 -3 230 -6 241 -3 12 -17 27 -30 33 -32 14 -35 14 -62 -5z"/>
<path d="M2396 1109 l-26 -20 0 -153 c0 -170 6 -186 66 -186 51 0 54 10 54
186 0 157 -1 163 -22 178 -29 21 -40 20 -72 -5z"/>
</g>
</svg>
